<svg width="139" height="140" viewBox="0 0 139 140" fill="none" xmlns="http://www.w3.org/2000/svg">
<path d="M127.446 43.713C141.778 64.2885 143.128 96.3864 129.523 111.509C115.814 126.632 87.0464 124.575 61.6021 122.723C36.1578 120.768 14.0368 119.02 5.00143 106.571C-4.0339 94.1231 -0.0874354 71.0785 10.9211 52.3547C22.0336 33.631 40.1042 19.1252 62.9522 16.4504C85.6963 13.7756 113.01 23.0345 127.446 43.713Z" fill="#FF7223" fill-opacity="0.4"/>
<g clip-path="url(#clip0_22_2950)">
<path d="M38.1082 94.3743C33.2239 89.49 26.3883 87.7956 20.2682 89.3253C17.7886 89.945 15.8358 91.8979 15.2161 94.3774C13.6864 100.498 15.3808 107.333 20.2651 112.217C26.1609 118.113 34.9002 119.361 41.7917 115.901C45.252 109.009 44.0041 100.27 38.1082 94.3743Z" fill="url(#paint0_linear_22_2950)"/>
<path d="M109.744 98.489C108.308 93.1675 106.154 89.2737 104.085 86.5142H39.3391C37.2702 89.2735 35.1156 93.1673 33.6802 98.489C31.6735 105.929 33.257 113.877 37.8958 120.029C40.2659 123.17 43.3004 125.662 46.7296 127.37C48.3699 128.188 50.1013 128.823 51.8916 129.266L53.8385 128.147L55.7854 129.909C56.4887 129.969 57.1975 130 57.9099 130H69.765L71.7124 128.955L73.6588 130H85.5139C86.2266 130 86.9351 129.969 87.6385 129.909L89.5854 128.22L91.5322 129.265C97.0614 127.898 102.025 124.672 105.528 120.03C108.843 115.635 110.598 110.321 110.598 104.932C110.598 102.78 110.317 100.612 109.744 98.489Z" fill="url(#paint1_linear_22_2950)"/>
<path d="M104.085 86.5145C102.039 93.0637 94.8798 107.717 71.7118 107.717C48.5439 107.717 41.3845 93.0639 39.339 86.5145C42.4722 82.3428 45.4184 80.7621 45.4184 80.7621H98.005C98.005 80.7621 100.951 82.3428 104.085 86.5145Z" fill="url(#paint2_linear_22_2950)"/>
<path d="M37.573 41.8893C42.954 42.3534 48.4951 40.53 52.6131 36.4119C60.0148 29.0102 60.0148 17.0098 52.6131 9.60837C45.2114 2.20691 29.5397 -1.46442 22.1382 5.93729C21.1394 6.93612 20.3438 8.08669 19.7301 9.34604L37.573 41.8893Z" fill="url(#paint3_linear_22_2950)"/>
<path d="M37.573 41.8893C43.3518 34.4541 42.831 23.7082 35.9995 16.8767C32.078 12.9552 25.8349 10.0812 19.7303 9.34601C15.7972 17.419 19.4066 30.009 25.8095 36.4119C29.0929 39.6956 33.2819 41.5192 37.573 41.8893Z" fill="url(#paint4_linear_22_2950)"/>
<path d="M105.851 41.8892C100.47 42.3533 94.9287 40.5299 90.8107 36.4119C83.409 29.0102 83.409 17.0098 90.8107 9.60832C98.2124 2.2066 113.884 -1.46447 121.286 5.93724C122.284 6.93606 123.08 8.08664 123.694 9.34598L105.851 41.8892Z" fill="url(#paint5_linear_22_2950)"/>
<path d="M105.851 41.8893C100.072 34.4541 100.593 23.7082 107.425 16.8767C111.346 12.9552 117.589 10.0812 123.694 9.34601C127.627 17.419 124.017 30.009 117.615 36.4119C114.331 39.6956 110.142 41.5192 105.851 41.8893Z" fill="url(#paint6_linear_22_2950)"/>
<path d="M28.1173 59.4476C26.9882 55.5978 26.4923 51.4862 26.7518 47.2366L27.0711 41.9983C27.7903 30.1975 33.0415 19.6999 41.0653 12.1485C49.0919 4.59972 59.8907 0 71.7121 0C95.3525 0 114.912 18.3994 116.353 41.9983L116.672 47.2366C116.932 51.486 116.436 55.5978 115.307 59.4476H28.1173Z" fill="url(#paint7_linear_22_2950)"/>
<path d="M115.307 59.4476C110.987 74.1402 97.4004 84.9985 81.1478 84.9985H62.2761C46.0235 84.9985 32.437 74.1402 28.1174 59.4476L28.4005 59.1645C34.5864 52.9812 42.9734 49.5054 51.7215 49.5054H91.7027C100.451 49.5054 108.838 52.9812 115.024 59.1645L115.307 59.4476Z" fill="url(#paint8_linear_22_2950)"/>
<path d="M78.6227 43.4244C82.3225 45.7359 84.7835 49.8415 84.7835 54.5238C84.7835 61.743 78.9311 65.0085 71.712 65.0085C64.4928 65.0085 58.6405 61.743 58.6405 54.5238C58.6405 49.8415 61.1014 45.7359 64.8013 43.4244H78.6227Z" fill="white"/>
<path d="M40.0345 55.7387C43.0078 55.7387 45.4181 53.8016 45.4181 51.4121C45.4181 49.0227 43.0078 47.0856 40.0345 47.0856C37.0612 47.0856 34.6509 49.0227 34.6509 51.4121C34.6509 53.8016 37.0612 55.7387 40.0345 55.7387Z" fill="#FA5F7E"/>
<path d="M103.389 55.7387C106.363 55.7387 108.773 53.8016 108.773 51.4121C108.773 49.0227 106.363 47.0856 103.389 47.0856C100.416 47.0856 98.0056 49.0227 98.0056 51.4121C98.0056 53.8016 100.416 55.7387 103.389 55.7387Z" fill="#FA5F7E"/>
<path d="M49.2643 51.4124C55.1602 51.4124 59.9398 46.6328 59.9398 40.7369C59.9398 34.8409 55.1602 30.0613 49.2643 30.0613C43.3683 30.0613 38.5887 34.8409 38.5887 40.7369C38.5887 46.6328 43.3683 51.4124 49.2643 51.4124Z" fill="white"/>
<path d="M94.1594 51.4124C100.055 51.4124 104.835 46.6328 104.835 40.7369C104.835 34.8409 100.055 30.0613 94.1594 30.0613C88.2635 30.0613 83.4839 34.8409 83.4839 40.7369C83.4839 46.6328 88.2635 51.4124 94.1594 51.4124Z" fill="white"/>
<path d="M49.2642 47.0994C52.7781 47.0994 55.6267 44.2508 55.6267 40.7369C55.6267 37.223 52.7781 34.3744 49.2642 34.3744C45.7503 34.3744 42.9017 37.223 42.9017 40.7369C42.9017 44.2508 45.7503 47.0994 49.2642 47.0994Z" fill="#383842"/>
<path d="M94.1596 47.0994C97.6735 47.0994 100.522 44.2508 100.522 40.7369C100.522 37.223 97.6735 34.3744 94.1596 34.3744C90.6457 34.3744 87.7971 37.223 87.7971 40.7369C87.7971 44.2508 90.6457 47.0994 94.1596 47.0994Z" fill="#383842"/>
<path d="M71.712 56.126C69.8992 56.126 68.0862 55.4406 66.6073 54.0691C66.0829 53.583 66.0518 52.7636 66.5381 52.2392C67.0245 51.7148 67.8438 51.6838 68.368 52.1701C70.3371 53.9958 73.0873 53.9958 75.0563 52.1701C75.5807 51.6843 76.3998 51.7146 76.8861 52.2392C77.3722 52.7636 77.3414 53.5827 76.817 54.0691C75.3378 55.4403 73.5247 56.126 71.712 56.126Z" fill="#383842"/>
<path d="M55.1728 25.8637L50.5971 24.0171C48.6029 23.2122 47.639 20.9432 48.4439 18.9489C49.2487 16.9546 51.5185 15.9905 53.512 16.7956L58.0877 18.6423C60.082 19.4471 61.0458 21.7162 60.241 23.7105C59.434 25.7097 57.1621 26.6665 55.1728 25.8637Z" fill="url(#paint9_linear_22_2950)"/>
<path d="M88.2511 25.8637L92.8267 24.0171C94.821 23.2122 95.7848 20.9432 94.98 18.9489C94.1751 16.9546 91.9053 15.9905 89.9118 16.7956L85.3362 18.6423C83.3419 19.4471 82.378 21.7162 83.1829 23.7105C83.9898 25.7097 86.262 26.6665 88.2511 25.8637Z" fill="url(#paint10_linear_22_2950)"/>
<path d="M71.7119 115.048C70.6367 115.048 69.765 115.92 69.765 116.995V130H73.6588V116.995C73.6588 115.92 72.7871 115.048 71.7119 115.048Z" fill="#FD8943"/>
<path d="M53.8383 115.048C52.763 115.048 51.8914 115.92 51.8914 116.995V129.266C53.1631 129.58 54.4644 129.797 55.7851 129.909V116.995C55.7851 115.92 54.9135 115.048 53.8383 115.048Z" fill="#FD8943"/>
<path d="M89.5856 115.048C88.5103 115.048 87.6387 115.92 87.6387 116.995V129.909C88.9594 129.797 90.2607 129.58 91.5324 129.265V116.995C91.5324 115.92 90.6608 115.048 89.5856 115.048Z" fill="#FD8943"/>
<path d="M58.7465 84.8261C53.9536 84.355 49.4499 82.9354 45.4181 80.7624C45.4062 80.7689 42.5553 82.3053 39.4829 86.3265C45.1211 89.8246 51.4191 91.9491 58.038 92.5841C60.3142 92.8024 62.2762 90.9894 62.2762 88.7027C62.2762 86.6932 60.7462 85.0226 58.7465 84.8261Z" fill="#FDDCB4"/>
<path d="M78.6226 43.4244C77.7659 46.4336 74.9963 48.6384 71.7119 48.6384C68.4274 48.6384 65.6578 46.4336 64.8011 43.4244C66.8066 42.1739 69.1751 41.4524 71.7119 41.4524C74.2487 41.4524 76.6172 42.1739 78.6226 43.4244Z" fill="#383842"/>
</g>
<defs>
<linearGradient id="paint0_linear_22_2950" x1="29.1869" y1="117.811" x2="29.1869" y2="88.7804" gradientUnits="userSpaceOnUse">
<stop stop-color="#FD8943"/>
<stop offset="1" stop-color="#FDB58A"/>
</linearGradient>
<linearGradient id="paint1_linear_22_2950" x1="71.7122" y1="130" x2="71.7122" y2="86.5145" gradientUnits="userSpaceOnUse">
<stop stop-color="#FDB58A"/>
<stop offset="1" stop-color="#FD8943"/>
</linearGradient>
<linearGradient id="paint2_linear_22_2950" x1="71.7118" y1="107.717" x2="71.7118" y2="80.7621" gradientUnits="userSpaceOnUse">
<stop stop-color="#FBE7B4"/>
<stop offset="1" stop-color="#FFF5E3"/>
</linearGradient>
<linearGradient id="paint3_linear_22_2950" x1="27.1168" y1="31.4333" x2="50.7773" y2="7.77283" gradientUnits="userSpaceOnUse">
<stop stop-color="#FD8943"/>
<stop offset="1" stop-color="#FDB58A"/>
</linearGradient>
<linearGradient id="paint4_linear_22_2950" x1="23.0189" y1="35.5511" x2="34.7301" y2="15.2667" gradientUnits="userSpaceOnUse">
<stop stop-color="#FFF5E3"/>
<stop offset="1" stop-color="#FBE7B4"/>
</linearGradient>
<linearGradient id="paint5_linear_22_2950" x1="85.2595" y1="21.9265" x2="123.693" y2="21.9265" gradientUnits="userSpaceOnUse">
<stop stop-color="#FD8943"/>
<stop offset="1" stop-color="#FDB58A"/>
</linearGradient>
<linearGradient id="paint6_linear_22_2950" x1="113.602" y1="41.8893" x2="113.602" y2="9.34601" gradientUnits="userSpaceOnUse">
<stop stop-color="#FFF5E3"/>
<stop offset="1" stop-color="#FBE7B4"/>
</linearGradient>
<linearGradient id="paint7_linear_22_2950" x1="71.7121" y1="59.4476" x2="71.7121" y2="0" gradientUnits="userSpaceOnUse">
<stop stop-color="#FDB58A"/>
<stop offset="1" stop-color="#FD8943"/>
</linearGradient>
<linearGradient id="paint8_linear_22_2950" x1="71.712" y1="84.9985" x2="71.712" y2="49.5054" gradientUnits="userSpaceOnUse">
<stop stop-color="#FBE7B4"/>
<stop offset="1" stop-color="#FFF5E3"/>
</linearGradient>
<linearGradient id="paint9_linear_22_2950" x1="54.3425" y1="26.1476" x2="54.3425" y2="16.5112" gradientUnits="userSpaceOnUse">
<stop stop-color="#FFF5E3"/>
<stop offset="1" stop-color="#FBE7B4"/>
</linearGradient>
<linearGradient id="paint10_linear_22_2950" x1="89.0816" y1="26.1476" x2="89.0816" y2="16.5112" gradientUnits="userSpaceOnUse">
<stop stop-color="#FFF5E3"/>
<stop offset="1" stop-color="#FBE7B4"/>
</linearGradient>
<clipPath id="clip0_22_2950">
<rect width="130" height="130" fill="white" transform="translate(5)"/>
</clipPath>
</defs>
</svg>
