<svg width="138" height="136" viewBox="0 0 138 136" fill="none" xmlns="http://www.w3.org/2000/svg">
<path d="M134.965 35.7118C142.504 48.5354 134.965 70.3258 123.658 88.3559C112.253 106.386 97.2726 120.849 76.2998 124.223C55.3271 127.598 28.5555 119.981 16.1845 101.276C3.81344 82.6673 5.93972 52.9706 19.3739 36.676C32.808 20.3814 57.4534 17.4889 81.1323 18.0674C104.811 18.6459 127.427 22.7919 134.965 35.7118Z" fill="#299FFF" fill-opacity="0.4"/>
<g clip-path="url(#clip0_22_2988)">
<path d="M43.3103 94.2274L43.4966 94.1909C48.0633 93.2869 51.0336 88.8518 50.1295 84.2841L45.3421 60.1053L36.887 61.7797L43.3103 94.2274Z" fill="#FCDA4F"/>
<path d="M46.8376 11.8367C37.1555 11.6342 29.0618 23.1182 28.7601 37.4885C28.4585 51.8587 36.0622 63.6728 45.7442 63.8762C55.4263 64.0797 63.52 52.5957 63.8217 38.2255C64.1234 23.8552 56.5196 12.0402 46.8376 11.8367Z" fill="#CCC033"/>
<path d="M55.4725 31.2939C53.9003 23.3511 50.3794 16.5461 45.9058 11.8569C36.4313 12.3975 28.7942 24.0456 28.7516 38.186C28.7101 52.0197 35.9524 63.1939 45.1354 63.8479C53.796 59.1931 58.3354 45.7533 55.4725 31.2939Z" fill="#99AF17"/>
<path d="M43.3111 94.2273L43.1248 94.2648C38.5581 95.1678 34.123 92.1996 33.219 87.6319L28.4316 63.4531L36.8867 61.7787L43.3111 94.2273Z" fill="#FCDA4F"/>
<path d="M35.2171 36.2129C29.463 23.0423 17.6034 15.5074 8.72914 19.3847C-0.146085 23.262 -2.67391 37.0835 3.08026 50.2551C8.83543 63.4267 20.695 70.9606 29.5693 67.0833C38.4435 63.2061 40.9723 49.3845 35.2171 36.2129Z" fill="#99AF17"/>
<path d="M52.1684 31.951C48.8904 15.39 37.1441 3.76326 25.9324 5.98232C14.7207 8.20239 8.29031 23.427 11.5693 39.988C14.8473 56.5489 26.5935 68.1757 37.8052 65.9556C49.0159 63.7366 55.4473 48.5119 52.1684 31.951Z" fill="#EACF32"/>
<path d="M22.5978 37.8023C19.8776 24.0658 23.8389 11.2485 31.6674 6.01065C29.7692 5.62799 27.8427 5.60268 25.9314 5.98231C14.7207 8.20137 8.29031 23.426 11.5693 39.986C14.8473 56.5469 26.5935 68.1727 37.8042 65.9536C39.7155 65.575 41.4871 64.8178 43.0967 63.7406C33.8631 61.8809 25.3169 51.5398 22.5978 37.8023Z" fill="#CCC033"/>
<path d="M30.5062 38.3591C26.2706 38.3591 22.859 36.0894 22.6919 35.976C21.9812 35.4941 21.795 34.5284 22.2758 33.8167C22.7567 33.106 23.7215 32.9187 24.4321 33.3976C24.4868 33.434 28.2457 35.8981 32.1543 35.0821C34.3653 34.6205 36.2655 33.1698 37.8032 30.7705C38.2659 30.0467 39.2266 29.8351 39.9514 30.2998C40.6743 30.7634 40.8848 31.7252 40.4212 32.448C38.4086 35.5883 35.8322 37.5006 32.7597 38.1333C31.9934 38.2912 31.2382 38.3591 30.5062 38.3591Z" fill="#FFEEA4"/>
<path d="M33.0598 52.3011C26.676 52.3011 21.3035 47.8195 21.0484 47.6038C20.3934 47.0491 20.3124 46.0681 20.8671 45.4131C21.4219 44.7581 22.4009 44.6761 23.0569 45.2299C23.1166 45.2795 29.0773 50.2299 35.0501 48.9908C38.4506 48.2862 41.3034 45.6642 43.5305 41.1967C43.9132 40.4283 44.8476 40.1155 45.6149 40.4982C46.3833 40.8819 46.6961 41.8153 46.3134 42.5836C43.6358 47.9551 40.0521 51.1369 35.6616 52.0399C34.7839 52.2212 33.9122 52.3011 33.0598 52.3011Z" fill="#FFEEA4"/>
<path d="M32.2243 26.5957C31.9895 25.5722 30.9042 24.9344 29.7775 25.1581C28.6538 25.3809 27.8945 26.378 28.0626 27.4126L38.3997 91.0567C38.427 91.2237 38.4776 91.3807 38.5465 91.5285C39.1417 93.456 41.1846 94.6485 43.2994 94.2304C43.3146 94.2274 43.3288 94.2223 43.343 94.2193C43.3602 94.2162 43.3774 94.2142 43.3946 94.2112C45.4831 93.7981 46.8913 91.9182 46.6857 89.9158C46.6938 89.7569 46.6817 89.5949 46.6442 89.4329L32.2243 26.5957Z" fill="#FFF9DC"/>
<path d="M41.0449 91.0334C40.976 90.8856 40.9244 90.7287 40.8981 90.5617L30.561 26.9176C30.4629 26.3142 30.6815 25.725 31.1027 25.2938C30.7068 25.1227 30.2462 25.065 29.7775 25.1581C28.6538 25.3798 27.8945 26.378 28.0626 27.4116L38.3996 91.0557C38.427 91.2227 38.4776 91.3806 38.5464 91.5274C39.1417 93.4549 41.1846 94.6485 43.2994 94.2294C43.3146 94.2263 43.3287 94.2223 43.3429 94.2193C43.3601 94.2152 43.3773 94.2142 43.3945 94.2112C43.8106 94.1281 44.1983 93.9864 44.5527 93.7981C42.9258 93.6463 41.5207 92.5762 41.0449 91.0334Z" fill="#FFF4C1"/>
<path d="M74.9576 85.2925C72.4845 83.9238 71.3274 81.0214 72.2132 78.4116L85.3361 39.7552C87.9024 32.195 96.8181 28.8998 103.98 32.8652C111.143 36.8305 113.083 46.135 108.039 52.3234L82.2455 83.9653C80.5042 86.1023 77.4308 86.6622 74.9576 85.2925Z" fill="#FF624B"/>
<path d="M114.34 23.0717H114.338C114.738 22.682 115.089 22.2294 115.374 21.7162C116.972 18.829 115.866 15.1572 112.902 13.5162C109.938 11.8762 106.239 12.8875 104.641 15.7747C104.357 16.288 104.16 16.8255 104.041 17.3712H104.04L104.037 17.3884C104.005 17.5423 103.979 17.6972 103.958 17.8531L102.127 28.5799C101.976 29.4626 102.415 30.3545 103.216 30.7979C104.006 31.2353 104.979 31.1431 105.647 30.5661L113.805 23.5323C113.986 23.3947 114.158 23.2448 114.323 23.0859L114.34 23.0717Z" fill="#EACF32"/>
<path d="M85.4842 70.5932C85.2777 70.5932 85.0671 70.5517 84.8656 70.4636L78.2663 67.5956C77.4787 67.2535 77.1173 66.3383 77.4594 65.5497C77.8016 64.7631 78.7178 64.4007 79.5054 64.7439L86.1047 67.6118C86.8923 67.953 87.2537 68.8692 86.9116 69.6568C86.6565 70.2429 86.0855 70.5932 85.4842 70.5932Z" fill="#FF4B34"/>
<path d="M95.3183 65.5396C95.1128 65.5396 94.9022 65.4981 94.6997 65.41L86.1181 61.6836C85.3305 61.3414 84.9691 60.4252 85.3112 59.6376C85.6534 58.85 86.5676 58.4876 87.3562 58.8308L95.9388 62.5572C96.7264 62.8994 97.0878 63.8156 96.7457 64.6032C96.4916 65.1893 95.9196 65.5396 95.3183 65.5396Z" fill="#FF4B34"/>
<path d="M91.9288 54.3714C91.7233 54.3714 91.5117 54.3299 91.3113 54.2418L84.7117 51.3739C83.9231 51.0317 83.5627 50.1155 83.9049 49.3279C84.2461 48.5413 85.1643 48.1789 85.9498 48.5221L92.5494 51.389C93.337 51.7312 93.6984 52.6484 93.3562 53.435C93.1021 54.0211 92.5301 54.3714 91.9288 54.3714Z" fill="#FF4B34"/>
<path d="M104.902 50.892C104.696 50.892 104.485 50.8505 104.283 50.7634L92.446 45.6227C91.6584 45.2805 91.2969 44.3644 91.6391 43.5768C91.9813 42.7892 92.8955 42.4277 93.6841 42.7699L105.523 47.9106C106.31 48.2528 106.672 49.1689 106.329 49.9566C106.074 50.5427 105.502 50.892 104.902 50.892Z" fill="#FF4B34"/>
<path d="M104.943 30.965C104.948 30.9275 104.952 30.8891 104.958 30.8506L106.788 20.1238C106.808 19.9679 106.835 19.813 106.868 19.6591L106.871 19.6419H106.872C106.99 19.0963 107.187 18.5587 107.47 18.0454C108.946 15.3789 112.212 14.315 115.038 15.4579C114.506 14.6804 113.787 14.0072 112.902 13.5172C109.937 11.8762 106.239 12.8875 104.64 15.7758C104.356 16.288 104.16 16.8256 104.041 17.3722L104.04 17.3712L104.037 17.3894C104.004 17.5433 103.978 17.6982 103.957 17.8531L102.127 28.5809C101.976 29.4637 102.415 30.3545 103.215 30.799C103.759 31.0986 104.387 31.1482 104.943 30.965Z" fill="#CCC033"/>
<path d="M104.094 29.0638L102.255 20.393C102.227 20.2088 102.188 20.0245 102.138 19.8423L102.134 19.8261H102.133C102.011 19.3817 101.824 18.9454 101.568 18.5303C100.126 16.1918 97.0592 15.4082 94.7187 16.78C92.3781 18.1527 91.6512 21.1614 93.0938 23.4999C93.35 23.915 93.6577 24.2794 94.0029 24.5932L94.0019 24.5943L94.0141 24.6034C94.1113 24.6914 94.2115 24.7755 94.3157 24.8554L101.288 30.6774C101.862 31.1563 102.673 31.2292 103.305 30.8576C103.93 30.4922 104.245 29.7744 104.094 29.0638Z" fill="#FCE575"/>
<path d="M97.8114 23.2478C97.7091 23.1689 97.6079 23.0848 97.5097 22.9968L97.4986 22.9866L97.4996 22.9856C97.1544 22.6728 96.8466 22.3074 96.5905 21.8923C95.4192 19.9942 95.6784 17.6546 97.0683 16.1068C96.2615 16.131 95.4536 16.3487 94.7187 16.78C92.3781 18.1517 91.6512 21.1614 93.0938 23.4999C93.35 23.915 93.6577 24.2794 94.0029 24.5932L94.0019 24.5942L94.0141 24.6034C94.1113 24.6914 94.2115 24.7755 94.3157 24.8554L101.288 30.6774C101.862 31.1563 102.673 31.2292 103.305 30.8576C103.93 30.4922 104.245 29.7744 104.094 29.0637L103.947 28.3713L97.8114 23.2478Z" fill="#EACF32"/>
<path d="M119.998 30.7756C119.918 28.0636 117.626 25.8809 114.878 25.8992C114.39 25.9022 113.922 25.9771 113.48 26.1087V26.1077L113.464 26.1138C113.283 26.1684 113.106 26.2332 112.935 26.3071L104.61 29.3502C103.929 29.5993 103.488 30.2482 103.509 30.971C103.53 31.705 104.022 32.3539 104.733 32.5857L113.368 35.403C113.489 35.4486 113.614 35.4891 113.74 35.5255L113.756 35.5296V35.5286C114.205 35.6551 114.677 35.7219 115.165 35.7189C117.913 35.7007 120.077 33.4867 119.998 30.7756Z" fill="#FCE575"/>
<path d="M118.662 34.1113C118.174 34.1153 117.701 34.0475 117.252 33.9219V33.923L117.237 33.9179C117.111 33.8825 116.986 33.841 116.865 33.7964L108.229 30.978C107.519 30.7462 107.027 30.0973 107.005 29.3644C106.994 28.9989 107.102 28.6537 107.298 28.3682L104.61 29.3512C103.929 29.6002 103.488 30.2481 103.509 30.972C103.53 31.7049 104.022 32.3538 104.733 32.5856L113.368 35.404C113.489 35.4486 113.614 35.4901 113.741 35.5255L113.756 35.5306V35.5295C114.205 35.6561 114.677 35.7229 115.165 35.7199C116.614 35.7097 117.899 35.0892 118.78 34.1082C118.74 34.1092 118.702 34.1113 118.662 34.1113Z" fill="#EACF32"/>
<path d="M79.0724 80.1649L92.1954 41.5086C93.9873 36.2292 98.8759 33.0302 104.101 32.931C104.062 32.9087 104.024 32.8864 103.985 32.8652C96.8229 28.8998 87.9071 32.195 85.3408 39.7552L72.2177 78.4116C71.3309 81.0214 72.4891 83.9238 74.9612 85.2925C76.5901 86.1934 78.4781 86.2582 80.0756 85.5881C78.8588 84.0868 78.4326 82.0499 79.0724 80.1649Z" fill="#FF4B34"/>
<path d="M61.4863 46.8304C60.7108 46.8304 60.069 46.2028 60.0224 45.397L59.3714 34.3584C59.3198 33.4797 59.991 32.7376 60.8363 32.7376H62.1362C62.9826 32.7376 63.6528 33.4797 63.6011 34.3584L62.9512 45.397C62.9046 46.2028 62.2628 46.8304 61.4863 46.8304Z" fill="#BF6C0D"/>
<path d="M63.0983 41.6876C71.9604 46.5965 74.3789 36.3799 74.9226 33.0372C75.0137 32.4723 74.6361 31.9418 74.0894 31.8649C70.7861 31.4063 60.2951 30.6976 62.3573 40.6682C62.4474 41.1045 62.7187 41.4781 63.0983 41.6876Z" fill="#EACF32"/>
<path d="M61.3921 45.397L60.7421 34.3584C60.6915 33.4918 61.3425 32.7599 62.1716 32.7396C62.1594 32.7386 62.1483 32.7376 62.1361 32.7376H60.8363C59.991 32.7376 59.3198 33.4797 59.3714 34.3584L60.0224 45.397C60.07 46.2028 60.7108 46.8304 61.4862 46.8304C61.7332 46.8304 61.9671 46.7667 62.1716 46.6543C61.7332 46.4123 61.4234 45.9457 61.3921 45.397Z" fill="#8C4C17"/>
<path d="M74.5643 42.1594C69.95 41.1673 65.2811 42.6139 61.4463 45.7593C57.6105 42.6139 52.9416 41.1673 48.3273 42.1594C39.0158 44.1628 33.455 55.3371 35.9069 67.1187C38.3588 78.9004 47.894 86.8281 57.2056 84.8257C58.7251 84.4987 60.1444 83.9267 61.4453 83.1482C62.7462 83.9267 64.1655 84.4987 65.685 84.8257C74.9965 86.8281 84.5328 78.9004 86.9837 67.1187C89.4366 55.3371 83.8758 44.1628 74.5643 42.1594Z" fill="#FF624B"/>
<path d="M65.0204 42.0025C63.259 33.4786 70.6683 32.7598 74.9201 33.017C75.0001 32.4602 74.6255 31.9398 74.085 31.8649C70.7817 31.4053 60.2918 30.6967 62.3529 40.6683C62.443 41.1036 62.7163 41.4781 63.095 41.6877C63.8927 42.1301 64.6388 42.448 65.3353 42.6606C65.1824 42.4733 65.0721 42.2485 65.0204 42.0025Z" fill="#CCC033"/>
<path d="M43.9125 67.1188C41.5558 55.7937 46.6033 45.0305 55.269 42.4348C53.0175 41.7809 50.6658 41.6573 48.3273 42.1595C39.0158 44.1629 33.455 55.3372 35.9069 67.1188C38.3588 78.9005 47.894 86.8281 57.2056 84.8257C57.566 84.7488 57.9203 84.6557 58.2685 84.5514C51.5577 82.6026 45.7489 75.9414 43.9125 67.1188Z" fill="#FF4B34"/>
<path d="M9.59155 111.367V52.1159C9.59155 50.729 10.7153 49.6053 12.1022 49.6053H23.9699C25.3568 49.6053 26.4805 50.729 26.4805 52.1159V111.367C26.4805 112.753 25.3568 113.877 23.9699 113.877H12.1022C10.7153 113.877 9.59155 112.753 9.59155 111.367Z" fill="#DB9C2E"/>
<path d="M93.7769 111.367V52.1159C93.7769 50.729 94.9006 49.6053 96.2875 49.6053H108.155C109.542 49.6053 110.666 50.729 110.666 52.1159V111.367C110.666 112.753 109.542 113.877 108.155 113.877H96.2875C94.9016 113.877 93.7769 112.753 93.7769 111.367Z" fill="#DB9C2E"/>
<path d="M115.847 72.1248H4.40801C2.97655 72.1248 1.81641 70.9647 1.81641 69.5332V57.871C1.81641 56.4396 2.97655 55.2794 4.40801 55.2794H115.847C117.278 55.2794 118.438 56.4396 118.438 57.871V69.5332C118.438 70.9647 117.278 72.1248 115.847 72.1248Z" fill="#FFC34C"/>
<path d="M115.847 93.1168H4.40801C2.97655 93.1168 1.81641 91.9567 1.81641 90.5252V78.863C1.81641 77.4316 2.97655 76.2714 4.40801 76.2714H115.847C117.278 76.2714 118.438 77.4316 118.438 78.863V90.5252C118.438 91.9567 117.278 93.1168 115.847 93.1168Z" fill="#FFC34C"/>
<path d="M115.847 114.109H4.40801C2.97655 114.109 1.81641 112.949 1.81641 111.517V99.855C1.81641 98.4236 2.97655 97.2634 4.40801 97.2634H115.847C117.278 97.2634 118.438 98.4236 118.438 99.855V111.517C118.438 112.949 117.278 114.109 115.847 114.109Z" fill="#FFC34C"/>
<path d="M113.771 110.998C112.913 110.998 112.216 110.302 112.216 109.443V101.927C112.216 101.069 112.913 100.372 113.771 100.372C114.63 100.372 115.326 101.069 115.326 101.927V109.443C115.326 110.302 114.63 110.998 113.771 110.998Z" fill="#FFD551"/>
<path d="M104.702 105.038C104.702 106.47 103.542 107.63 102.111 107.63C100.679 107.63 99.5193 106.47 99.5193 105.038C99.5193 103.607 100.679 102.447 102.111 102.447C103.542 102.447 104.702 103.607 104.702 105.038Z" fill="#FFDF74"/>
<path d="M104.702 84.0462C104.702 85.4776 103.542 86.6378 102.111 86.6378C100.679 86.6378 99.5193 85.4776 99.5193 84.0462C99.5193 82.6147 100.679 81.4546 102.111 81.4546C103.542 81.4546 104.702 82.6147 104.702 84.0462Z" fill="#FFDF74"/>
<path d="M104.702 63.0542C104.702 64.4857 103.542 65.6459 102.111 65.6459C100.679 65.6459 99.5193 64.4857 99.5193 63.0542C99.5193 61.6228 100.679 60.4626 102.111 60.4626C103.542 60.4626 104.702 61.6228 104.702 63.0542Z" fill="#FFDF74"/>
<path d="M17.366 90.5252V78.863C17.366 77.4316 18.5262 76.2714 19.9576 76.2714H4.40801C2.97655 76.2714 1.81641 77.4316 1.81641 78.863V90.5252C1.81641 91.9567 2.97655 93.1168 4.40801 93.1168H19.9576C18.5262 93.1168 17.366 91.9567 17.366 90.5252Z" fill="#F9BB32"/>
<path d="M17.366 111.517V99.855C17.366 98.4236 18.5262 97.2634 19.9576 97.2634H4.40801C2.97655 97.2634 1.81641 98.4236 1.81641 99.855V111.517C1.81641 112.949 2.97655 114.109 4.40801 114.109H19.9576C18.5262 114.109 17.366 112.949 17.366 111.517Z" fill="#F9BB32"/>
<path d="M17.366 69.5332V57.871C17.366 56.4396 18.5262 55.2794 19.9576 55.2794H4.40801C2.97655 55.2794 1.81641 56.4396 1.81641 57.871V69.5332C1.81641 70.9647 2.97655 72.1248 4.40801 72.1248H19.9576C18.5262 72.1248 17.366 70.9647 17.366 69.5332Z" fill="#F9BB32"/>
<path d="M20.7332 63.0542C20.7332 64.4857 19.5731 65.6459 18.1416 65.6459C16.7102 65.6459 15.55 64.4857 15.55 63.0542C15.55 61.6228 16.7102 60.4626 18.1416 60.4626C19.5731 60.4626 20.7332 61.6228 20.7332 63.0542Z" fill="#FFDF74"/>
<path d="M20.7332 84.0462C20.7332 85.4776 19.5731 86.6378 18.1416 86.6378C16.7102 86.6378 15.55 85.4776 15.55 84.0462C15.55 82.6147 16.7102 81.4546 18.1416 81.4546C19.5731 81.4546 20.7332 82.6147 20.7332 84.0462Z" fill="#FFDF74"/>
<path d="M20.7332 105.038C20.7332 106.47 19.5731 107.63 18.1416 107.63C16.7102 107.63 15.55 106.47 15.55 105.038C15.55 103.607 16.7102 102.447 18.1416 102.447C19.5731 102.447 20.7332 103.607 20.7332 105.038Z" fill="#FFDF74"/>
<path d="M17.3641 86.5184V81.5731C16.3133 81.9031 15.55 82.8861 15.55 84.0462C15.55 85.2064 16.3123 86.1883 17.3641 86.5184Z" fill="#FFD551"/>
<path d="M17.3641 107.51V102.565C16.3133 102.895 15.55 103.878 15.55 105.038C15.55 106.198 16.3123 107.18 17.3641 107.51Z" fill="#FFD551"/>
<path d="M17.3641 65.5264V60.5811C16.3133 60.9111 15.55 61.8941 15.55 63.0542C15.55 64.2144 16.3123 65.1963 17.3641 65.5264Z" fill="#FFD551"/>
<path d="M38.6064 63.0542C38.6064 65.5588 36.5757 67.5895 34.0711 67.5895C31.5666 67.5895 29.5359 65.5588 29.5359 63.0542C29.5359 60.5497 31.5666 58.5189 34.0711 58.5189C36.5757 58.5189 38.6064 60.5497 38.6064 63.0542Z" fill="#F9BB32"/>
<path d="M54.1563 84.0463C54.1563 86.5508 52.1256 88.5816 49.621 88.5816C47.1165 88.5816 45.0857 86.5508 45.0857 84.0463C45.0857 81.5418 47.1165 79.511 49.621 79.511C52.1256 79.511 54.1563 81.5418 54.1563 84.0463Z" fill="#F9BB32"/>
<path d="M113.771 90.0059C112.913 90.0059 112.216 89.3104 112.216 88.4509V80.9353C112.216 80.0768 112.913 79.3803 113.771 79.3803C114.63 79.3803 115.326 80.0768 115.326 80.9353V88.4509C115.326 89.3104 114.63 90.0059 113.771 90.0059Z" fill="#FFD551"/>
<path d="M113.771 68.2364C112.913 68.2364 112.216 67.5409 112.216 66.6814V59.1658C112.216 58.3073 112.913 57.6108 113.771 57.6108C114.63 57.6108 115.326 58.3073 115.326 59.1658V66.6814C115.326 67.5409 114.63 68.2364 113.771 68.2364Z" fill="#FFD551"/>
</g>
<defs>
<clipPath id="clip0_22_2988">
<rect width="120" height="120" fill="white"/>
</clipPath>
</defs>
</svg>
