<svg width="146" height="130" viewBox="0 0 146 130" fill="none" xmlns="http://www.w3.org/2000/svg">
<path d="M142.571 17.845C151.565 32.9436 141.572 59.3662 127.582 83.8021C113.592 108.139 95.5048 130.489 78.2172 129.992C60.9296 129.595 44.3414 106.45 32.7497 83.5041C21.0581 60.4589 14.3629 37.6123 22.7569 22.911C31.0509 8.20975 54.2343 1.65378 79.916 0.26312C105.498 -1.12754 133.578 2.74644 142.571 17.845Z" fill="#9CC624" fill-opacity="0.4"/>
<path d="M58.5509 92.3291L53.2887 111.931C48.3736 112.702 43.7507 112.821 39.433 112.463C19.7599 110.839 6.40953 99.3148 0.731439 94.1762C-0.660473 92.9158 0.0474167 90.6058 1.90499 90.3242C21.8308 87.2984 28.2797 89.806 28.2797 89.806L8.43037 71.6116C6.84117 70.154 8.02793 67.7332 10.1828 67.7543C32.0109 67.9569 44.7666 76.1398 51.6444 83.0097C56.6618 88.0193 58.5509 92.3291 58.5509 92.3291Z" fill="#FF3501"/>
<path d="M58.5507 92.3291L53.2885 111.931C48.3734 112.702 43.7506 112.821 39.4329 112.463C38.5305 109.958 38.0385 107.258 38.0385 104.443C38.0385 94.9679 43.6033 86.7929 51.644 83.0095C56.6617 88.0193 58.5507 92.3291 58.5507 92.3291Z" fill="#CD2A00"/>
<path d="M61.6873 123.59C52.6889 122.214 47.6712 112.413 51.6522 104.225C52.0864 103.333 49.9206 107.784 56.775 93.6955C59.3603 88.3798 64.6839 84.5763 71.5569 84.3391C79.7383 83.988 86.8309 78.4234 89.2224 70.6571C93.7947 55.9773 79.7771 41.7715 64.8185 46.5795C58.1573 48.722 50.7758 47.1411 45.4953 42.4091C34.0065 32.1208 38.0177 13.2171 52.6836 8.53579C89.4583 -3.19643 127.872 23.0059 129.902 61.8535C132.024 99.5486 98.8256 129.263 61.6873 123.59Z" fill="#FF7956"/>
<path d="M106.314 66.9379C106.314 88.2975 88.9986 105.613 67.639 105.613C62.2583 105.613 57.1329 104.513 52.4783 102.529C53.1834 101.077 54.4674 98.4379 56.7749 93.6965C59.3615 88.379 64.6841 84.577 71.5568 84.3401C79.7371 83.9874 86.8305 78.4226 89.2223 70.6581C93.7952 55.9763 79.7765 41.7707 64.8184 46.5805C58.1564 48.7222 50.7759 47.1409 45.4952 42.4101C44.0321 41.0997 42.8218 39.6501 41.8536 38.1082C48.6972 31.9855 57.7299 28.2625 67.6388 28.2625C88.9986 28.2627 106.314 45.5783 106.314 66.9379Z" fill="#FF6243"/>
<path d="M106.314 66.9379C106.314 88.2975 88.9986 105.613 67.639 105.613C62.2583 105.613 57.1329 104.513 52.4783 102.529C53.1834 101.077 54.4674 98.4379 56.7749 93.6965C59.3615 88.379 64.6841 84.577 71.5568 84.3401C79.7371 83.9874 86.8305 78.4226 89.2223 70.6581C93.7952 55.9763 79.7765 41.7707 64.8184 46.5805C58.1564 48.7222 50.7759 47.1409 45.4952 42.4101C44.0321 41.0997 42.8218 39.6501 41.8536 38.1082C48.6972 31.9855 57.7299 28.2625 67.6388 28.2625C88.9986 28.2627 106.314 45.5783 106.314 66.9379Z" fill="#FF6243"/>
<path d="M102.923 114.801L102.446 114.504C79.0055 101.053 77.5293 85.0612 77.4346 83.1457C82.9916 81.067 87.4278 76.481 89.2221 70.6584C89.4326 69.9822 89.6038 69.3086 89.7353 68.6375C90.0773 68.8295 109.124 79.4095 129.981 63.7725C130.515 85.3374 119.491 104.098 102.923 114.801Z" fill="#FF5023"/>
<path d="M110.071 20.7192L109.99 20.7481C88.3251 18.5826 78.6239 42.6262 77.1322 46.7308C73.3906 45.3889 69.1441 45.1889 64.8185 46.5808C64.1871 46.7834 63.5477 46.9543 62.9056 47.0911C61.0691 43.9942 50.3393 23.8108 70.6939 5.71362H70.6964C85.4225 5.71362 99.3942 11.2813 110.071 20.7192Z" fill="#FF5023"/>
<path d="M102.923 114.801L102.446 114.504C79.0055 101.053 77.5293 85.0612 77.4346 83.1457C82.9916 81.067 87.4278 76.481 89.2221 70.6584C89.4326 69.9822 89.6038 69.3086 89.7353 68.6375C90.0773 68.8295 109.124 79.4095 129.981 63.7725C130.515 85.3374 119.491 104.098 102.923 114.801Z" fill="#FF5023"/>
<path d="M85.1361 32.4382C80.371 38.4083 77.8373 44.7915 77.1322 46.7306C73.3906 45.3887 69.144 45.1886 64.8185 46.5805C64.187 46.7831 63.5477 46.954 62.9056 47.0908C61.8846 45.3673 58.1091 38.3555 58.4668 29.3543C61.4058 28.6413 64.479 28.2622 67.6389 28.2622C73.9353 28.2627 79.8815 29.7676 85.1361 32.4382Z" fill="#FF3501"/>
<path d="M85.1361 32.4382C80.371 38.4083 77.8373 44.7915 77.1322 46.7306C73.3906 45.3887 69.144 45.1886 64.8185 46.5805C64.187 46.7831 63.5477 46.954 62.9056 47.0908C61.8846 45.3673 58.1091 38.3555 58.4668 29.3543C61.4058 28.6413 64.479 28.2622 67.6389 28.2622C73.9353 28.2627 79.8815 29.7676 85.1361 32.4382Z" fill="#FF3501"/>
<path d="M129.91 68.1199C129.881 68.7199 129.842 69.3145 129.792 69.9064C129.839 69.3145 129.878 68.7199 129.91 68.1199Z" fill="#FF5023"/>
<path d="M105.943 72.3108C104.207 84.8088 96.4973 95.3939 85.7937 101.096C78.1897 92.1129 77.4975 84.4351 77.4346 83.146C82.9916 81.0673 87.4278 76.4812 89.2221 70.6586C89.4326 69.9825 89.6038 69.3089 89.7353 68.6378C89.9326 68.748 96.4394 72.3634 105.943 72.3108Z" fill="#FF3501"/>
<path d="M105.943 72.3108C104.207 84.8088 96.4973 95.3939 85.7937 101.096C78.1897 92.1129 77.4975 84.4351 77.4346 83.146C82.9916 81.0673 87.4278 76.4812 89.2221 70.6586C89.4326 69.9825 89.6038 69.3089 89.7353 68.6378C89.9326 68.748 96.4394 72.3634 105.943 72.3108Z" fill="#FF3501"/>
</svg>
