<svg width="140" height="140" viewBox="0 0 140 140" fill="none" xmlns="http://www.w3.org/2000/svg">
<path d="M137.5 104.527C145.195 92.5254 133.896 67.8344 120.358 48.8489C106.916 29.9617 91.4297 16.7801 71.7549 14.4192C52.1775 11.9599 28.3144 20.3214 14.3862 39.5037C0.360559 58.7843 -3.92505 88.9841 8.05518 103.445C19.938 117.807 47.8918 116.429 75.3587 116.134C102.826 115.741 129.708 116.528 137.5 104.527Z" fill="#FB5591" fill-opacity="0.4"/>
<path d="M124.189 61.3783H118.757L104.27 33.1891L118.757 5H124.189C125.189 5 126 5.81078 126 6.81087V59.5674C126 60.5675 125.189 61.3783 124.189 61.3783Z" fill="#FF7647"/>
<path d="M118.757 61.3783H71.4327C70.4326 61.3783 69.6218 60.5675 69.6218 59.5674V33.1891V6.81087C69.6218 5.81078 70.4326 5 71.4327 5H90.5675L97.811 12.2435L105.054 5H118.757V61.3783Z" fill="#FF9733"/>
<path d="M97.8111 5L94.1893 11.8511L97.8111 22.3239L105.055 25.9457V5H97.8111Z" fill="#FFE7B5"/>
<path d="M90.5675 5V25.9457L97.811 22.3239V5H90.5675Z" fill="white"/>
<path d="M60.5673 61.3783H55.1347L40.6478 33.1891L55.1347 5H60.5673C61.5674 5 62.3782 5.81078 62.3782 6.81087V59.5674C62.3782 60.5675 61.5674 61.3783 60.5673 61.3783Z" fill="#FF9733"/>
<path d="M55.1348 61.3783H7.81087C6.81078 61.3783 6 60.5675 6 59.5674V33.1891V6.81087C6 5.81078 6.81078 5 7.81087 5H26.9457L34.1891 12.2435L41.4326 5H55.1348V61.3783Z" fill="#FFB44E"/>
<path d="M34.1892 5L30.5675 11.8511L34.1892 22.3239L41.4327 25.9457V5H34.1892Z" fill="#FFE7B5"/>
<path d="M26.9457 5V25.9457L34.1891 22.3239V5H26.9457Z" fill="white"/>
<path d="M124.189 125H118.757L104.27 96.8108L118.757 68.6217H124.189C125.189 68.6217 126 69.4325 126 70.4326V123.189C126 124.189 125.189 125 124.189 125Z" fill="#FF9733"/>
<path d="M118.757 125H71.4327C70.4326 125 69.6218 124.189 69.6218 123.189V96.8108V70.4326C69.6218 69.4325 70.4326 68.6217 71.4327 68.6217H90.5675L97.811 75.8652L105.054 68.6217H118.757V125Z" fill="#FFB44E"/>
<path d="M97.8111 68.6217L94.1893 75.4728L97.8111 85.9456L105.055 89.5674V68.6217H97.8111Z" fill="#FFE7B5"/>
<path d="M90.5675 68.6217V89.5674L97.811 85.9456V68.6217H90.5675Z" fill="white"/>
<path d="M60.5673 125H55.1347L40.6478 96.8108L55.1347 68.6217H60.5673C61.5674 68.6217 62.3782 69.4325 62.3782 70.4326V123.189C62.3782 124.189 61.5674 125 60.5673 125Z" fill="#FF7647"/>
<path d="M55.1348 125H7.81087C6.81078 125 6 124.189 6 123.189V96.8108V70.4326C6 69.4325 6.81078 68.6217 7.81087 68.6217H26.9457L34.1891 75.8652L41.4326 68.6217H55.1348V125Z" fill="#FF9733"/>
<path d="M34.1892 68.6217L30.5675 75.4728L34.1892 85.9456L41.4327 89.5674V68.6217H34.1892Z" fill="#FFE7B5"/>
<path d="M26.9457 68.6217V89.5674L34.1891 85.9456V68.6217H26.9457Z" fill="white"/>
</svg>
