<svg width="150" height="37" viewBox="0 0 150 37" fill="none" xmlns="http://www.w3.org/2000/svg">
<path d="M49.1911 16.7015L51.3623 20.578C51.6126 21.0248 52.529 21.0249 52.7794 20.5781L54.9516 16.7015C55.1438 16.3583 54.7766 15.9887 54.243 15.9887H49.8997C49.3661 15.9887 48.9988 16.3582 49.1911 16.7015ZM56.6326 26.6159H47.3436C46.8002 26.6159 46.3129 26.951 46.1177 27.4587L44.8069 32.2653C44.6116 32.7731 44.1244 33.1083 43.5809 33.1083H33.5359C32.5888 33.1083 34.8993 32.1349 35.2786 31.2658L46.3522 5.89651C46.8882 4.66869 48.0991 3.87514 49.4372 3.87514H54.7036C56.0427 3.87514 57.2548 4.66939 57.7912 5.89818L68.8641 31.2658C69.2434 32.1349 68.6076 33.1083 67.6604 33.1083H60.3959C59.8527 33.1083 59.3655 32.7733 59.1702 32.2656L57.8583 27.4583C57.663 26.9508 57.1758 26.6159 56.6326 26.6159Z" fill="#231F20"/>
<path d="M81.6138 32.5075L77.5138 26.1626C77.2533 25.7593 76.663 25.7627 76.407 26.169L72.4225 32.4947C72.1818 32.8767 71.7623 33.1084 71.3115 33.1084H63.3766C62.3072 33.1084 61.6861 31.8968 62.309 31.0263L70.8255 19.1263C71.1509 18.6717 71.1537 18.0608 70.8325 17.6032L62.6497 5.94749C62.0378 5.0759 62.6603 3.87535 63.7243 3.87535H71.5462C71.9823 3.87535 72.3901 4.09206 72.6344 4.45399L76.6545 10.409C76.9169 10.7975 77.4894 10.7942 77.747 10.4027L81.6538 4.46679C81.8969 4.09749 82.309 3.87535 82.7506 3.87535H90.0719C91.1421 3.87535 91.7633 5.08842 91.1385 5.95862L83.0512 17.2262C82.723 17.6834 82.7217 18.2991 83.048 18.7576L91.7805 31.0293C92.4002 31.9 91.7787 33.1084 90.7108 33.1084H82.7166C82.2711 33.1084 81.8559 32.882 81.6138 32.5075Z" fill="#231F20"/>
<path d="M96.2805 32.0006V4.99926C96.2805 4.3046 96.714 3.87062 97.4075 3.87062H98.7079C99.4014 3.87062 99.835 4.3046 99.835 4.99926V32.0006C99.835 32.695 99.4014 33.1293 98.7079 33.1293H97.4075C96.714 33.1293 96.2805 32.695 96.2805 32.0006Z" fill="#231F20"/>
<path d="M104.372 31.9139V13.8984C104.372 13.1603 104.805 12.7699 105.499 12.7699H106.799C107.493 12.7699 107.926 13.2041 107.926 13.8984V31.9139C107.926 32.652 107.493 33.0426 106.799 33.0426H105.499C104.805 33.0426 104.372 32.6083 104.372 31.9139Z" fill="#231F20"/>
<path d="M104.372 9.25272V7.29896C104.372 6.56104 104.805 6.17046 105.499 6.17046H106.799C107.493 6.17046 107.926 6.60472 107.926 7.29896V9.25272C107.926 9.99078 107.493 10.3812 106.799 10.3812H105.499C104.805 10.3812 104.372 9.9471 104.372 9.25272Z" fill="#231F20"/>
<path d="M114.327 32.0006V16.0254H111.293C110.556 16.0254 110.166 15.5914 110.166 14.8968V13.9851C110.166 13.2907 110.599 12.8565 111.293 12.8565H114.327V12.5093C114.327 6.30135 117.448 3.39296 122.389 3.39296C124.253 3.39296 125.813 3.95741 127.071 4.91218C127.374 5.17271 127.547 5.4331 127.547 5.73703C127.547 5.95416 127.461 6.21469 127.287 6.47508L126.94 6.99614C126.68 7.38659 126.421 7.56046 126.117 7.56046C125.9 7.56046 125.64 7.47367 125.38 7.34333C124.556 6.86567 123.603 6.56188 122.606 6.56188C119.572 6.56188 117.881 8.47197 117.881 12.2922V12.8565H125.38C126.074 12.8565 126.507 13.2907 126.507 13.9851V14.8968C126.507 15.5914 126.074 16.0254 125.38 16.0254H117.881V32.0006C117.881 32.695 117.448 33.1293 116.754 33.1293H115.454C114.76 33.1293 114.327 32.695 114.327 32.0006Z" fill="#231F20"/>
<path d="M139.943 20.931C139.64 17.5884 137.906 15.5047 134.525 15.5047C131.274 15.5047 128.933 17.4583 128.283 20.931H139.943ZM124.686 23.0147C124.686 17.1545 128.63 12.379 134.525 12.379C140.203 12.379 143.628 16.1992 143.628 22.4938V22.7543C143.628 23.4488 143.194 23.883 142.5 23.883H128.153C128.457 27.6161 130.841 30.4377 134.872 30.4377C137.429 30.4377 139.119 29.6564 140.421 28.3976C140.724 28.137 140.94 27.9633 141.243 27.9633C141.504 27.9633 141.721 28.0504 141.981 28.2675L142.5 28.7014C142.804 28.9619 142.978 29.2657 142.978 29.613C142.978 29.7868 142.935 30.0039 142.761 30.221C140.94 32.565 138.296 33.6069 134.872 33.6069C128.457 33.6069 124.686 29.2224 124.686 23.0147Z" fill="#231F20"/>
<path d="M33.566 3.79658C31.1471 3.79658 30.291 4.63854 29.2481 5.93994L22.0722 15.332L14.8829 5.92297C13.853 4.63854 12.9969 3.79658 10.5788 3.79658C8.18088 3.79658 6.37256 5.39301 6.37256 7.50965V29.9784C6.37256 31.8786 8.02349 33.1056 10.5788 33.1056C14.3089 33.1056 14.866 31.1614 14.866 30.0026L14.859 19.8667C15.0667 20.1536 15.2932 20.4663 15.5383 20.806C16.8593 22.6333 17.9253 23.9784 18.9938 25.1688C19.9635 26.2475 20.8556 26.6868 22.0722 26.6868C23.321 26.6868 24.1553 26.2759 25.1514 25.1681C26.2222 23.9752 27.2874 22.63 28.606 20.806C28.8511 20.4663 29.0776 20.1536 29.2853 19.8675V28.8941L29.2788 30.0026C29.2788 31.1614 29.8358 33.1056 33.566 33.1056C36.1208 33.1056 37.7719 31.8786 37.7719 29.9784V7.50965C37.7719 5.35809 36.0031 3.79658 33.566 3.79658Z" fill="#231F20"/>
</svg>
