<svg width="193" height="199" viewBox="0 0 193 199" fill="none" xmlns="http://www.w3.org/2000/svg">
<path d="M164.335 0C147.849 0 142.014 5.71667 134.906 14.5528L85.9998 78.322L37.0017 14.4376C29.9822 5.71667 24.1473 0 7.66717 0C-8.67555 0 -21 10.8393 -21 25.2107V177.767C-21 190.669 -9.74822 199 7.66717 199C33.0894 199 36.8862 185.8 36.8862 177.931L36.8389 109.112C38.254 111.06 39.7979 113.183 41.4686 115.489C50.4716 127.896 57.7366 137.029 65.0187 145.111C71.6278 152.436 77.7077 155.418 85.9998 155.418C94.5106 155.418 100.197 152.628 106.986 145.107C114.284 137.007 121.543 127.874 130.53 115.489C132.201 113.183 133.745 111.06 135.16 109.117V170.405L135.115 177.931C135.115 185.8 138.912 199 164.335 199C181.747 199 193 190.669 193 177.767V25.2107C193 10.6022 180.944 0 164.335 0Z" fill="#B27FB9" fill-opacity="0.2"/>
</svg>
