<svg width="177" height="333" viewBox="0 0 177 333" fill="none" xmlns="http://www.w3.org/2000/svg">
<path d="M309.18 0C281.678 0 271.944 9.5661 260.086 24.3522L178.5 131.061L96.7598 24.1594C85.0497 9.5661 75.3159 0 47.8233 0C20.56 0 0 18.1381 0 42.1868V297.47C0 319.059 18.7705 333 47.8233 333C90.2333 333 96.5672 310.911 96.5672 297.744L96.4882 182.584C98.849 185.844 101.425 189.397 104.212 193.256C119.231 214.017 131.35 229.299 143.499 242.825C154.524 255.081 164.667 260.071 178.5 260.071C192.698 260.071 202.183 255.403 213.509 242.817C225.684 229.263 237.794 213.98 252.786 193.256C255.573 189.397 258.149 185.844 260.51 182.593V285.151L260.435 297.744C260.435 310.911 266.769 333 309.18 333C338.227 333 357 319.059 357 297.47V42.1868C357 17.7414 336.888 0 309.18 0Z" fill="#D1EAFF"/>
</svg>
