<svg width="250" height="489" viewBox="0 0 250 489" fill="none" xmlns="http://www.w3.org/2000/svg">
<path opacity="0.2" d="M179.81 0C139.443 0 125.156 14.0475 107.751 35.7604L-12.0005 192.46L-131.977 35.4773C-149.165 14.0475 -163.452 0 -203.806 0C-243.822 0 -274 26.6352 -274 61.95V436.825C-274 468.528 -246.449 489 -203.806 489C-141.557 489 -132.26 456.563 -132.26 437.228L-132.376 268.118C-128.911 272.906 -125.13 278.123 -121.039 283.79C-98.9948 314.278 -81.2056 336.719 -63.3747 356.581C-47.1918 374.578 -32.3045 381.907 -12.0005 381.907C8.83893 381.907 22.762 375.051 39.3853 356.569C57.2556 336.665 75.0309 314.222 97.0362 283.79C101.127 278.123 104.907 272.906 108.373 268.132V418.735L108.264 437.228C108.264 456.563 117.56 489 179.81 489C222.446 489 250 468.528 250 436.825V61.95C250 26.0527 220.48 0 179.81 0Z" fill="#D7A8DD"/>
</svg>
