<svg width="627" height="671" viewBox="0 0 627 671" fill="none" xmlns="http://www.w3.org/2000/svg">
<path opacity="0.1" d="M743.07 0C676.973 0 653.58 23.0103 625.082 58.5768L428.999 315.256L232.549 58.1131C204.405 23.0103 181.011 0 114.937 0C49.413 0 0 43.6295 0 101.476V715.535C0 767.467 45.1123 801 114.937 801C216.863 801 232.086 747.867 232.086 716.196L231.896 439.188C237.57 447.03 243.76 455.576 250.458 464.859C286.554 514.799 315.682 551.558 344.879 584.092C371.377 613.572 395.753 625.577 428.999 625.577C463.122 625.577 485.919 614.348 513.139 584.073C542.4 551.47 571.505 514.708 607.536 464.859C614.235 455.576 620.425 447.03 626.099 439.21V685.903L625.92 716.196C625.92 747.867 641.143 801 743.07 801C812.883 801 858 767.467 858 715.535V101.476C858 42.6753 809.664 0 743.07 0Z" fill="#299FFF"/>
</svg>
