<svg width="293" height="552" viewBox="0 0 293 552" fill="none" xmlns="http://www.w3.org/2000/svg">
<path d="M511.835 0C466.307 0 450.193 15.8573 430.563 40.3676L295.499 217.255L160.182 40.048C140.797 15.8573 124.683 0 79.1696 0C34.0362 0 0 30.0667 0 69.9313V493.103C0 528.891 31.0738 552 79.1696 552C149.378 552 159.863 515.384 159.863 493.558L159.733 302.661C163.641 308.066 167.904 313.955 172.518 320.352C197.382 354.768 217.446 380.1 237.556 402.52C255.809 422.836 272.599 431.109 295.499 431.109C319.003 431.109 334.707 423.371 353.456 402.507C373.611 380.04 393.659 354.705 418.478 320.352C423.092 313.955 427.356 308.066 431.264 302.677V472.682L431.141 493.558C431.141 515.384 441.626 552 511.835 552C559.923 552 591 528.891 591 493.103V69.9313C591 29.4092 557.706 0 511.835 0Z" fill="#59B4FF" fill-opacity="0.2"/>
</svg>
