<svg width="322" height="415" viewBox="0 0 322 415" fill="none" xmlns="http://www.w3.org/2000/svg">
<path d="M262.526 0C228.322 0 216.216 11.9217 201.469 30.3488L99.9996 163.335L-1.66008 30.1085C-16.2239 11.9217 -28.3299 0 -62.5223 0C-96.4296 0 -122 22.6045 -122 52.5752V370.72C-122 397.626 -98.6552 415 -62.5223 415C-9.77706 415 -1.89967 387.472 -1.89967 371.063L-1.99787 227.544C0.938225 231.607 4.14143 236.035 7.60779 240.844C26.2869 266.718 41.3602 285.764 56.4688 302.619C70.181 317.893 82.7954 324.113 99.9996 324.113C117.657 324.113 129.455 318.295 143.54 302.609C158.682 285.718 173.744 266.671 192.389 240.844C195.856 236.035 199.059 231.607 201.995 227.556V355.368L201.903 371.063C201.903 387.472 209.78 415 262.526 415C298.653 415 322 397.626 322 370.72V52.5752C322 22.1101 296.987 0 262.526 0Z" fill="#B27FB9" fill-opacity="0.2"/>
</svg>
