<svg width="20" height="21" viewBox="0 0 20 21" fill="none" xmlns="http://www.w3.org/2000/svg">
<path d="M14.1666 2.59839H5.83329C3.53211 2.59839 1.66663 4.41604 1.66663 6.65822V14.7779C1.66663 17.0201 3.53211 18.8377 5.83329 18.8377H14.1666C16.4678 18.8377 18.3333 17.0201 18.3333 14.7779V6.65822C18.3333 4.41604 16.4678 2.59839 14.1666 2.59839Z" stroke="white" stroke-width="2" stroke-linecap="round" stroke-linejoin="round"/>
<path d="M13.3334 10.2065C13.4362 10.8823 13.3178 11.5724 12.9948 12.1788C12.6719 12.7852 12.161 13.2769 11.5347 13.584C10.9085 13.8912 10.1987 13.9981 9.50653 13.8895C8.81431 13.781 8.17484 13.4626 7.67907 12.9795C7.1833 12.4965 6.85648 11.8734 6.7451 11.1989C6.63371 10.5244 6.74343 9.83293 7.05865 9.22272C7.37386 8.61251 7.87853 8.11468 8.50086 7.80005C9.12319 7.48541 9.8315 7.36999 10.525 7.47019C11.2325 7.57241 11.8874 7.8936 12.3931 8.38634C12.8988 8.87907 13.2285 9.51722 13.3334 10.2065Z" stroke="white" stroke-width="2" stroke-linecap="round" stroke-linejoin="round"/>
<path d="M14.5834 6.2522H14.5917" stroke="white" stroke-width="2" stroke-linecap="round" stroke-linejoin="round"/>
</svg>
