<svg width="20" height="21" viewBox="0 0 20 21" fill="none" xmlns="http://www.w3.org/2000/svg">
<path d="M19.1667 3.41026C18.3687 3.95873 17.4851 4.37822 16.55 4.65257C16.0482 4.09029 15.3812 3.69177 14.6392 3.51089C13.8973 3.33001 13.1163 3.37551 12.4018 3.64123C11.6873 3.90695 11.0737 4.38008 10.6442 4.99662C10.2146 5.61315 9.98979 6.34336 10 7.08847V7.90043C8.53557 7.93743 7.08443 7.62097 5.77588 6.97922C4.46733 6.33747 3.34197 5.39035 2.50004 4.22223C2.50004 4.22223 -0.833292 11.5299 6.66671 14.7778C4.95048 15.9129 2.906 16.482 0.833374 16.4017C8.33337 20.4615 17.5 16.4017 17.5 7.06411C17.4993 6.83794 17.477 6.61233 17.4334 6.39018C18.2839 5.57293 18.8841 4.5411 19.1667 3.41026Z" fill="white"/>
</svg>
